<svg width="75" height="75" viewBox="0 0 75 75" fill="none" xmlns="http://www.w3.org/2000/svg">
<path d="M57.6923 66C57.6923 65.1875 57.4069 64.4844 56.8359 63.8906C56.265 63.2969 55.5889 63 54.8077 63C54.0264 63 53.3504 63.2969 52.7794 63.8906C52.2085 64.4844 51.9231 65.1875 51.9231 66C51.9231 66.8125 52.2085 67.5156 52.7794 68.1094C53.3504 68.7031 54.0264 69 54.8077 69C55.5889 69 56.265 68.7031 56.8359 68.1094C57.4069 67.5156 57.6923 66.8125 57.6923 66ZM69.2308 66C69.2308 65.1875 68.9453 64.4844 68.3744 63.8906C67.8035 63.2969 67.1274 63 66.3462 63C65.5649 63 64.8888 63.2969 64.3179 63.8906C63.747 64.4844 63.4615 65.1875 63.4615 66C63.4615 66.8125 63.747 67.5156 64.3179 68.1094C64.8888 68.7031 65.5649 69 66.3462 69C67.1274 69 67.8035 68.7031 68.3744 68.1094C68.9453 67.5156 69.2308 66.8125 69.2308 66ZM75 55.5V70.5C75 71.75 74.5793 72.8125 73.738 73.6875C72.8966 74.5625 71.875 75 70.6731 75H4.32692C3.125 75 2.10337 74.5625 1.26202 73.6875C0.420673 72.8125 0 71.75 0 70.5V55.5C0 54.25 0.420673 53.1875 1.26202 52.3125C2.10337 51.4375 3.125 51 4.32692 51H23.5727C24.2037 52.75 25.2629 54.1875 26.7503 55.3125C28.2377 56.4375 29.8978 57 31.7308 57H43.2692C45.1022 57 46.7623 56.4375 48.2497 55.3125C49.7371 54.1875 50.7963 52.75 51.4273 51H70.6731C71.875 51 72.8966 51.4375 73.738 52.3125C74.5793 53.1875 75 54.25 75 55.5ZM60.3516 25.125C59.8407 26.375 58.9543 27 57.6923 27H46.1538V48C46.1538 48.8125 45.8684 49.5156 45.2975 50.1094C44.7266 50.7031 44.0505 51 43.2692 51H31.7308C30.9495 51 30.2734 50.7031 29.7025 50.1094C29.1316 49.5156 28.8462 48.8125 28.8462 48V27H17.3077C16.0457 27 15.1593 26.375 14.6484 25.125C14.1376 23.9062 14.348 22.8281 15.2794 21.8906L35.4718 0.890625C36.0126 0.296875 36.6887 0 37.5 0C38.3113 0 38.9874 0.296875 39.5282 0.890625L59.7206 21.8906C60.652 22.8281 60.8624 23.9062 60.3516 25.125Z" fill="#007AFF"/>
</svg>
